<svg xmlns:svg="http://www.w3.org/2000/svg" xmlns="http://www.w3.org/2000/svg" version="1.1">
	<rect id="25" x="412.572032" y="367.198451" width="69.500000" height="63.300000" stroke="#784421" fill="#00aa88" opacity="0.5" />
	<rect id="26" x="393.850557" y="49.785262" width="69.500000" height="65.600000" stroke="#6600ff" fill="#c8ab37" opacity="0.5" />
	<rect id="27" x="198.288318" y="354.695780" width="69.500000" height="67.900000" stroke="#784421" fill="#00aa88" opacity="0.5" />
	<rect id="28" x="92.070419" y="425.837232" width="69.500000" height="70.200000" stroke="#6600ff" fill="#c8ab37" opacity="0.5" />
	<rect id="29" x="304.656427" y="167.835436" width="69.500000" height="70.200000" stroke="#784421" fill="#00aa88" opacity="0.5" />
	<rect id="24" x="1.000000" y="1.000000" width="69.500000" height="61.000000" stroke="#6600ff" fill="#c8ab37" opacity="0.5" />
	<rect id="23" x="19.000000" y="22.000000" width="69.500000" height="58.700000" stroke="#784421" fill="#00aa88" opacity="0.5" />
	<rect id="22" x="55.000000" y="64.000000" width="69.500000" height="56.400000" stroke="#6600ff" fill="#c8ab37" opacity="0.5" />
	<rect id="21" x="109.000000" y="127.000000" width="69.500000" height="54.100000" stroke="#784421" fill="#00aa88" opacity="0.5" />
	<rect id="20" x="181.000000" y="211.000000" width="66.000000" height="51.800000" stroke="#6600ff" fill="#c8ab37" opacity="0.5" />
	<rect id="19" x="271.000000" y="316.000000" width="62.500000" height="49.500000" stroke="#784421" fill="#00aa88" opacity="0.5" />
	<rect id="18" x="379.000000" y="442.000000" width="59.000000" height="47.200000" stroke="#6600ff" fill="#c8ab37" opacity="0.5" />
	<rect id="17" x="505.000000" y="589.000000" width="55.500000" height="44.900000" stroke="#784421" fill="#00aa88" opacity="0.5" />
	<rect id="16" x="649.000000" y="757.000000" width="52.000000" height="42.600000" stroke="#6600ff" fill="#c8ab37" opacity="0.5" />
	<rect id="15" x="811.000000" y="946.000000" width="48.500000" height="40.300000" stroke="#784421" fill="#00aa88" opacity="0.5" />
	<rect id="14" x="991.000000" y="1156.000000" width="45.000000" height="38.000000" stroke="#6600ff" fill="#c8ab37" opacity="0.5" />
	<rect id="13" x="1189.000000" y="1387.000000" width="41.500000" height="35.700000" stroke="#784421" fill="#00aa88" opacity="0.5" />
	<rect id="12" x="1405.000000" y="1639.000000" width="38.000000" height="33.400000" stroke="#6600ff" fill="#c8ab37" opacity="0.5" />
	<rect id="11" x="1639.000000" y="1912.000000" width="34.500000" height="31.100000" stroke="#784421" fill="#00aa88" opacity="0.5" />
	<rect id="10" x="1891.000000" y="2206.000000" width="31.000000" height="28.800000" stroke="#6600ff" fill="#c8ab37" opacity="0.5" />
	<rect id="9" x="2161.000000" y="2521.000000" width="27.500000" height="26.500000" stroke="#784421" fill="#00aa88" opacity="0.5" />
	<rect id="8" x="2449.000000" y="2857.000000" width="24.000000" height="24.200000" stroke="#6600ff" fill="#c8ab37" opacity="0.5" />
	<rect id="7" x="2755.000000" y="3214.000000" width="20.500000" height="21.900000" stroke="#784421" fill="#00aa88" opacity="0.5" />
	<rect id="6" x="3079.000000" y="3592.000000" width="17.000000" height="19.600000" stroke="#6600ff" fill="#c8ab37" opacity="0.5" />
	<rect id="5" x="3421.000000" y="3991.000000" width="13.500000" height="17.300000" stroke="#784421" fill="#00aa88" opacity="0.5" />
</svg>
