<svg xmlns:svg="http://www.w3.org/2000/svg" xmlns="http://www.w3.org/2000/svg" version="1.1">
	<circle id="5" cx="309.089654" cy="363.006617" r="14.250000" stroke="#784421" fill="#00aa88" fill-opacity="0.5"/>
	<rect id="6" x="20.727820" y="33.813703" width="28.500000" height="27.700000" stroke="#784421" fill="#00aa88" opacity="0.5" />
	<circle id="7" cx="141.592344" cy="155.184510" r="16.000000" stroke="#6600ff" fill="#c8ab37" fill-opacity="0.5"/>
	<rect id="8" x="77.404854" y="337.862477" width="32.000000" height="30.400000" stroke="#6600ff" fill="#c8ab37" opacity="0.5" />
	<circle id="9" cx="191.047221" cy="80.626433" r="17.750000" stroke="#784421" fill="#00aa88" fill-opacity="0.5"/>
	<rect id="10" x="414.833888" y="445.439944" width="35.500000" height="33.100000" stroke="#784421" fill="#00aa88" opacity="0.5" />
	<circle id="11" cx="459.364136" cy="223.292051" r="19.500000" stroke="#6600ff" fill="#c8ab37" fill-opacity="0.5"/>
	<rect id="12" x="399.870458" y="250.470067" width="39.000000" height="35.800000" stroke="#6600ff" fill="#c8ab37" opacity="0.5" />
	<circle id="13" cx="238.559596" cy="406.024917" r="21.250000" stroke="#784421" fill="#00aa88" fill-opacity="0.5"/>
	<rect id="14" x="153.150428" y="271.367310" width="42.500000" height="38.500000" stroke="#784421" fill="#00aa88" opacity="0.5" />
	<circle id="15" cx="174.204588" cy="492.195169" r="23.000000" stroke="#6600ff" fill="#c8ab37" fill-opacity="0.5"/>
	<rect id="16" x="333.047093" y="452.957708" width="46.000000" height="41.200000" stroke="#6600ff" fill="#c8ab37" opacity="0.5" />
	<circle id="17" cx="419.328856" cy="101.161947" r="24.750000" stroke="#784421" fill="#00aa88" fill-opacity="0.5"/>
	<rect id="18" x="268.643552" y="59.234333" width="49.500000" height="43.900000" stroke="#784421" fill="#00aa88" opacity="0.5" />
	<circle id="19" cx="116.347286" cy="242.977014" r="26.500000" stroke="#6600ff" fill="#c8ab37" fill-opacity="0.5"/>
	<rect id="20" x="500.358208" y="212.370993" width="53.000000" height="46.600000" stroke="#6600ff" fill="#c8ab37" opacity="0.5" />
	<circle id="21" cx="216.977192" cy="270.732685" r="28.250000" stroke="#784421" fill="#00aa88" fill-opacity="0.5"/>
	<rect id="22" x="442.096255" y="371.934484" width="56.500000" height="49.300000" stroke="#784421" fill="#00aa88" opacity="0.5" />
	<circle id="23" cx="97.038595" cy="223.186428" r="30.000000" stroke="#6600ff" fill="#c8ab37" fill-opacity="0.5"/>
	<rect id="24" x="169.752658" y="346.476286" width="60.000000" height="52.000000" stroke="#6600ff" fill="#c8ab37" opacity="0.5" />
	<circle id="25" cx="357.734878" cy="351.628865" r="31.750000" stroke="#784421" fill="#00aa88" fill-opacity="0.5"/>
	<rect id="26" x="354.122736" y="336.495623" width="63.500000" height="54.700000" stroke="#784421" fill="#00aa88" opacity="0.5" />
	<circle id="27" cx="297.443870" cy="420.626268" r="33.500000" stroke="#6600ff" fill="#c8ab37" fill-opacity="0.5"/>
	<rect id="28" x="402.355584" y="155.712024" width="67.000000" height="57.400000" stroke="#6600ff" fill="#c8ab37" opacity="0.5" />
	<circle id="29" cx="49.674817" cy="287.784130" r="35.250000" stroke="#784421" fill="#00aa88" fill-opacity="0.5"/>
	<rect id="30" x="103.563634" y="228.581084" width="70.500000" height="60.100000" stroke="#784421" fill="#00aa88" opacity="0.5" />
	<circle id="31" cx="345.932641" cy="448.701018" r="37.000000" stroke="#6600ff" fill="#c8ab37" fill-opacity="0.5"/>
	<rect id="32" x="367.507432" y="426.375072" width="74.000000" height="62.800000" stroke="#6600ff" fill="#c8ab37" opacity="0.5" />
	<circle id="33" cx="320.869895" cy="379.541530" r="38.750000" stroke="#784421" fill="#00aa88" fill-opacity="0.5"/>
	<rect id="34" x="490.206579" y="446.309409" width="77.500000" height="65.500000" stroke="#784421" fill="#00aa88" opacity="0.5" />
</svg>
