<svg xmlns:svg="http://www.w3.org/2000/svg" xmlns="http://www.w3.org/2000/svg" version="1.1">
	<rect id="10" x="119.684776" y="216.874620" width="31.000000" height="28.800000" stroke="#6600ff" fill="#c8ab37" opacity="0.5" />
	<rect id="11" x="331.330774" y="184.813362" width="34.500000" height="31.100000" stroke="#784421" fill="#00aa88" opacity="0.5" />
	<rect id="12" x="394.455368" y="97.672955" width="38.000000" height="33.400000" stroke="#6600ff" fill="#c8ab37" opacity="0.5" />
	<rect id="13" x="71.205057" y="263.726353" width="41.500000" height="35.700000" stroke="#784421" fill="#00aa88" opacity="0.5" />
	<rect id="14" x="325.387652" y="145.745251" width="45.000000" height="38.000000" stroke="#6600ff" fill="#c8ab37" opacity="0.5" />
	<rect id="15" x="30.091255" y="416.485625" width="48.500000" height="40.300000" stroke="#784421" fill="#00aa88" opacity="0.5" />
	<rect id="16" x="266.954233" y="506.927236" width="52.000000" height="42.600000" stroke="#6600ff" fill="#c8ab37" opacity="0.5" />
	<rect id="17" x="390.496177" y="330.293303" width="55.500000" height="44.900000" stroke="#784421" fill="#00aa88" opacity="0.5" />
	<rect id="18" x="415.273789" y="446.868232" width="59.000000" height="47.200000" stroke="#6600ff" fill="#c8ab37" opacity="0.5" />
	<rect id="19" x="131.907590" y="217.633351" width="62.500000" height="49.500000" stroke="#784421" fill="#00aa88" opacity="0.5" />
	<rect id="20" x="455.123940" y="460.385887" width="66.000000" height="51.800000" stroke="#6600ff" fill="#c8ab37" opacity="0.5" />
	<rect id="21" x="410.368758" y="481.561045" width="69.500000" height="54.100000" stroke="#784421" fill="#00aa88" opacity="0.5" />
	<rect id="22" x="294.480004" y="75.814784" width="69.500000" height="56.400000" stroke="#6600ff" fill="#c8ab37" opacity="0.5" />
	<rect id="23" x="433.835479" y="156.802256" width="69.500000" height="58.700000" stroke="#784421" fill="#00aa88" opacity="0.5" />
	<rect id="24" x="498.141348" y="171.984084" width="69.500000" height="61.000000" stroke="#6600ff" fill="#c8ab37" opacity="0.5" />
	<rect id="25" x="412.572032" y="367.198451" width="69.500000" height="63.300000" stroke="#784421" fill="#00aa88" opacity="0.5" />
	<rect id="26" x="393.850557" y="49.785262" width="69.500000" height="65.600000" stroke="#6600ff" fill="#c8ab37" opacity="0.5" />
	<rect id="27" x="198.288318" y="354.695780" width="69.500000" height="67.900000" stroke="#784421" fill="#00aa88" opacity="0.5" />
	<rect id="28" x="92.070419" y="425.837232" width="69.500000" height="70.200000" stroke="#6600ff" fill="#c8ab37" opacity="0.5" />
	<rect id="29" x="304.656427" y="167.835436" width="69.500000" height="70.200000" stroke="#784421" fill="#00aa88" opacity="0.5" />
</svg>
