<svg xmlns:svg="http://www.w3.org/2000/svg" xmlns="http://www.w3.org/2000/svg" version="1.1">
<line x1="10.000000" y1="10.000000" x2="376.120000" y2="10.000000" stroke="blue" stroke-width="2" stroke-dasharray="2 2" />
<line x1="376.120000" y1="10.000000" x2="376.120000" y2="369.930000" stroke="blue" stroke-width="2" stroke-dasharray="2 2" />
<line x1="376.120000" y1="369.930000" x2="10.000000" y2="369.930000" stroke="blue" stroke-width="2" stroke-dasharray="2 2" />
<line x1="10.000000" y1="369.930000" x2="10.000000" y2="10.000000" stroke="blue" stroke-width="2" stroke-dasharray="2 2" />
<line x1="10.000000" y1="10.000000" x2="380.180000" y2="10.000000" stroke="blue" stroke-width="2" stroke-dasharray="2 2" />
<line x1="380.180000" y1="10.000000" x2="380.180000" y2="377.190000" stroke="blue" stroke-width="2" stroke-dasharray="2 2" />
<line x1="380.180000" y1="377.190000" x2="10.000000" y2="377.190000" stroke="blue" stroke-width="2" stroke-dasharray="2 2" />
<line x1="10.000000" y1="377.190000" x2="10.000000" y2="10.000000" stroke="blue" stroke-width="2" stroke-dasharray="2 2" />
<line x1="710.000000" y1="10.000000" x2="343.880000" y2="10.000000" stroke="blue" stroke-width="2" stroke-dasharray="2 2" />
<line x1="343.880000" y1="10.000000" x2="343.880000" y2="369.930000" stroke="blue" stroke-width="2" stroke-dasharray="2 2" />
<line x1="343.880000" y1="369.930000" x2="710.000000" y2="369.930000" stroke="blue" stroke-width="2" stroke-dasharray="2 2" />
<line x1="710.000000" y1="369.930000" x2="710.000000" y2="10.000000" stroke="blue" stroke-width="2" stroke-dasharray="2 2" />
<line x1="710.000000" y1="10.000000" x2="347.940000" y2="10.000000" stroke="blue" stroke-width="2" stroke-dasharray="2 2" />
<line x1="347.940000" y1="10.000000" x2="347.940000" y2="377.190000" stroke="blue" stroke-width="2" stroke-dasharray="2 2" />
<line x1="347.940000" y1="377.190000" x2="710.000000" y2="377.190000" stroke="blue" stroke-width="2" stroke-dasharray="2 2" />
<line x1="710.000000" y1="377.190000" x2="710.000000" y2="10.000000" stroke="blue" stroke-width="2" stroke-dasharray="2 2" />
<line x1="710.000000" y1="710.000000" x2="343.880000" y2="710.000000" stroke="blue" stroke-width="2" stroke-dasharray="2 2" />
<line x1="343.880000" y1="710.000000" x2="343.880000" y2="350.070000" stroke="blue" stroke-width="2" stroke-dasharray="2 2" />
<line x1="343.880000" y1="350.070000" x2="710.000000" y2="350.070000" stroke="blue" stroke-width="2" stroke-dasharray="2 2" />
<line x1="710.000000" y1="350.070000" x2="710.000000" y2="710.000000" stroke="blue" stroke-width="2" stroke-dasharray="2 2" />
<line x1="710.000000" y1="710.000000" x2="344.680000" y2="710.000000" stroke="blue" stroke-width="2" stroke-dasharray="2 2" />
<line x1="344.680000" y1="710.000000" x2="344.680000" y2="357.320000" stroke="blue" stroke-width="2" stroke-dasharray="2 2" />
<line x1="344.680000" y1="357.320000" x2="710.000000" y2="357.320000" stroke="blue" stroke-width="2" stroke-dasharray="2 2" />
<line x1="710.000000" y1="357.320000" x2="710.000000" y2="710.000000" stroke="blue" stroke-width="2" stroke-dasharray="2 2" />
<line x1="10.000000" y1="710.000000" x2="376.120000" y2="710.000000" stroke="blue" stroke-width="2" stroke-dasharray="2 2" />
<line x1="376.120000" y1="710.000000" x2="376.120000" y2="350.070000" stroke="blue" stroke-width="2" stroke-dasharray="2 2" />
<line x1="376.120000" y1="350.070000" x2="10.000000" y2="350.070000" stroke="blue" stroke-width="2" stroke-dasharray="2 2" />
<line x1="10.000000" y1="350.070000" x2="10.000000" y2="710.000000" stroke="blue" stroke-width="2" stroke-dasharray="2 2" />
<line x1="10.000000" y1="710.000000" x2="376.920000" y2="710.000000" stroke="blue" stroke-width="2" stroke-dasharray="2 2" />
<line x1="376.920000" y1="710.000000" x2="376.920000" y2="357.320000" stroke="blue" stroke-width="2" stroke-dasharray="2 2" />
<line x1="376.920000" y1="357.320000" x2="10.000000" y2="357.320000" stroke="blue" stroke-width="2" stroke-dasharray="2 2" />
<line x1="10.000000" y1="357.320000" x2="10.000000" y2="710.000000" stroke="blue" stroke-width="2" stroke-dasharray="2 2" />
<text fill="red" x="390.43" y="388.14" font-size="25" text-anchor="middle" dominant-baseline="middle" font-weight="bold">*</text>
<text fill="red" x="388.12" y="382.03" font-size="25" text-anchor="middle" dominant-baseline="middle" font-weight="bold">*</text>
<text fill="red" x="388.12" y="382.03" font-size="25" text-anchor="middle" dominant-baseline="middle" font-weight="bold">*</text>
<text fill="red" x="388.12" y="382.03" font-size="25" text-anchor="middle" dominant-baseline="middle" font-weight="bold">*</text>
<text fill="red" x="388.12" y="382.03" font-size="25" text-anchor="middle" dominant-baseline="middle" font-weight="bold">*</text>
<text fill="red" x="390.43" y="388.14" font-size="25" text-anchor="middle" dominant-baseline="middle" font-weight="bold">*</text>
<text fill="red" x="390.43" y="388.14" font-size="25" text-anchor="middle" dominant-baseline="middle" font-weight="bold">*</text>
<text fill="red" x="390.43" y="388.14" font-size="25" text-anchor="middle" dominant-baseline="middle" font-weight="bold">*</text>
<text fill="red" x="390.43" y="388.14" font-size="25" text-anchor="middle" dominant-baseline="middle" font-weight="bold">*</text>
<text fill="red" x="361.69" y="390.44" font-size="25" text-anchor="middle" dominant-baseline="middle" font-weight="bold">*</text>
<text fill="red" x="359.38" y="384.33" font-size="25" text-anchor="middle" dominant-baseline="middle" font-weight="bold">*</text>
<text fill="red" x="359.38" y="384.33" font-size="25" text-anchor="middle" dominant-baseline="middle" font-weight="bold">*</text>
<text fill="red" x="361.69" y="390.44" font-size="25" text-anchor="middle" dominant-baseline="middle" font-weight="bold">*</text>
<text fill="red" x="361.69" y="390.44" font-size="25" text-anchor="middle" dominant-baseline="middle" font-weight="bold">*</text>
<text fill="red" x="368.93" y="377.47" font-size="25" text-anchor="middle" dominant-baseline="middle" font-weight="bold">*</text>
<text fill="red" x="369.88" y="371.37" font-size="25" text-anchor="middle" dominant-baseline="middle" font-weight="bold">*</text>
<text fill="red" x="369.88" y="371.37" font-size="25" text-anchor="middle" dominant-baseline="middle" font-weight="bold">*</text>
<text fill="red" x="368.93" y="377.47" font-size="25" text-anchor="middle" dominant-baseline="middle" font-weight="bold">*</text>
<text fill="red" x="368.93" y="377.47" font-size="25" text-anchor="middle" dominant-baseline="middle" font-weight="bold">*</text>
<text fill="red" x="404.67" y="379.77" font-size="25" text-anchor="middle" dominant-baseline="middle" font-weight="bold">*</text>
	<rect id="21" x="59.187600" y="347.465167" width="69.500000" height="54.100000" stroke="#784421" fill="#00aa88" opacity="0.5" />
	<rect id="22" x="480.670374" y="167.172712" width="73.000000" height="56.400000" stroke="#6600ff" fill="#c8ab37" opacity="0.5" />
	<rect id="23" x="671.958342" y="89.372388" width="76.500000" height="58.700000" stroke="#784421" fill="#00aa88" opacity="0.5" />
	<rect id="24" x="583.951317" y="164.299397" width="80.000000" height="61.000000" stroke="#6600ff" fill="#c8ab37" opacity="0.5" />
	<rect id="8" x="376.120000" y="369.930000" width="24.000000" height="24.200000" stroke="#6600ff" fill="#c8ab37" opacity="0.5" />
	<rect id="7" x="380.180000" y="377.190000" width="20.500000" height="21.900000" stroke="#784421" fill="#00aa88" opacity="0.5" />
	<rect id="10" x="343.880000" y="369.930000" width="31.000000" height="28.800000" stroke="#6600ff" fill="#c8ab37" opacity="0.5" />
	<rect id="9" x="347.940000" y="377.190000" width="27.500000" height="26.500000" stroke="#784421" fill="#00aa88" opacity="0.5" />
	<rect id="16" x="343.880000" y="350.070000" width="52.000000" height="42.600000" stroke="#6600ff" fill="#c8ab37" opacity="0.5" />
	<rect id="15" x="344.680000" y="357.320000" width="48.500000" height="40.300000" stroke="#784421" fill="#00aa88" opacity="0.5" />
	<rect id="18" x="376.120000" y="350.070000" width="59.000000" height="47.200000" stroke="#6600ff" fill="#c8ab37" opacity="0.5" />
	<rect id="17" x="376.920000" y="357.320000" width="55.500000" height="44.900000" stroke="#784421" fill="#00aa88" opacity="0.5" />
</svg>
